<svg viewBox="0 0 245 166" xmlns="http://www.w3.org/2000/svg" fill-rule="evenodd" clip-rule="evenodd" stroke-linejoin="round" stroke-miterlimit="2"><path d="M1.2 14.548a4.822 4.822 0 014.862-4.859h13.195c10.542 0 16.917 6.25 16.917 15.276v.125c0 10.228-7.953 15.534-17.866 15.534h-7.383v8.773a4.825 4.825 0 01-4.862 4.863 4.826 4.826 0 01-4.862-4.863V14.548H1.2zm17.425 17.424c4.863 0 7.7-2.903 7.7-6.691v-.125c0-4.36-3.029-6.695-7.892-6.695h-7.509v13.511h7.701zm28.099-17.424a4.826 4.826 0 014.865-4.859h15.34c5.613 0 9.973 1.575 12.875 4.48 2.464 2.464 3.789 5.933 3.789 10.102v.125c0 6.944-3.47 11.237-8.836 13.448l6.754 8.208c.943 1.2 1.574 2.209 1.574 3.722 0 2.714-2.268 4.485-4.601 4.485-2.214 0-3.665-1.077-4.804-2.527l-9.465-11.994h-7.768v9.658a4.824 4.824 0 01-4.859 4.863 4.83 4.83 0 01-4.865-4.863V14.548h.001zm19.574 16.605c4.732 0 7.447-2.527 7.447-6.25v-.125c0-4.168-2.901-6.317-7.635-6.317h-9.662v12.691h9.85v.001zm24.408.757v-.125c0-12.563 9.909-22.856 23.548-22.856 13.641 0 23.418 10.165 23.418 22.727v.129c0 12.562-9.902 22.852-23.542 22.852-13.638 0-23.424-10.165-23.424-22.727zm36.805 0v-.125c0-7.577-5.551-13.89-13.382-13.89-7.828 0-13.257 6.184-13.257 13.76v.129c0 7.572 5.553 13.887 13.381 13.887 7.83.001 13.258-6.187 13.258-13.761zM1.676 65.518a4.822 4.822 0 014.857-4.861h24.75a4.39 4.39 0 014.413 4.421 4.389 4.389 0 01-4.413 4.417H11.399v9.409h17.039a4.392 4.392 0 014.421 4.417 4.392 4.392 0 01-4.421 4.418H11.399v12.629a4.829 4.829 0 01-4.865 4.861 4.822 4.822 0 01-4.857-4.861v-34.85h-.001zm46.472 34.471V65.518a4.825 4.825 0 014.861-4.861h24.494a4.366 4.366 0 014.355 4.359c0 2.398-1.958 4.293-4.355 4.293H57.805v8.963H74.66a4.361 4.361 0 014.354 4.355c0 2.398-1.953 4.294-4.354 4.294H57.805V96.2H77.82a4.366 4.366 0 014.355 4.355c0 2.397-1.959 4.292-4.355 4.292H53.009a4.821 4.821 0 01-4.861-4.858zm46.03-17.109v-.128c0-12.562 9.471-22.852 23.04-22.852 6.632 0 11.111 1.77 14.773 4.483a4.863 4.863 0 011.895 3.849c0 2.654-2.145 4.738-4.797 4.738-1.326 0-2.211-.508-2.904-.949-2.713-2.018-5.557-3.157-9.025-3.157-7.452 0-12.817 6.188-12.817 13.763v.125c0 7.575 5.241 13.891 12.817 13.891 4.1 0 6.815-1.268 9.595-3.473a4.544 4.544 0 012.901-1.073c2.463 0 4.545 2.021 4.545 4.48 0 1.518-.756 2.714-1.641 3.475-3.979 3.469-8.649 5.556-15.721 5.556-13.002 0-22.661-10.041-22.661-22.728zm-80.352 37.712H4.482c-2.463 0-4.482-2.02-4.482-4.48 0-2.464 2.02-4.484 4.482-4.484h28.409c2.465 0 4.482 2.02 4.482 4.484 0 2.46-2.018 4.48-4.482 4.48h-9.343v30.743a4.827 4.827 0 01-4.865 4.863c-2.715 0-4.857-2.146-4.857-4.863v-30.743zm32.08 16.289v-20.77a4.823 4.823 0 014.857-4.862 4.829 4.829 0 014.866 4.862v20.516c0 7.199 3.595 10.921 9.528 10.921 5.936 0 9.537-3.598 9.537-10.606v-20.831a4.823 4.823 0 014.859-4.862 4.821 4.821 0 014.857 4.862v20.453c0 13.381-7.51 19.947-19.377 19.947-11.867.001-19.127-6.627-19.127-19.63zm46.189-20.645a4.824 4.824 0 014.865-4.861h1.07c2.081 0 3.533 1.076 4.418 2.525l11.744 19.128 11.802-19.189c1.008-1.643 2.401-2.464 4.354-2.464h1.075a4.822 4.822 0 014.86 4.861v35.098a4.822 4.822 0 01-4.86 4.863c-2.65 0-4.8-2.207-4.8-4.863v-22.029l-8.518 13.133c-1.016 1.512-2.278 2.459-4.044 2.459-1.766 0-3.028-.947-4.038-2.459l-8.395-12.945v21.971c0 2.652-2.149 4.734-4.802 4.734-2.65 0-4.733-2.082-4.733-4.734v-35.228h.002zm74.468-5.031c16.287-16.169 33.991-34.125 50.276-50.298 1.986-1.967 1.969-5.276 0-7.248-8.095-8.135-16.115-16.27-24.209-24.406V17.458c13.055 13.161 26.112 26.323 39.166 39.48l-35.305 35.538c-10.929 11.12-14.237 14.14-14.237 16.583 0 8.581-.048 17.153 0 25.736.034 6.61 10.286 6.61 10.25 0v-23.632c.771-.783 1.425-1.561 2.196-2.339 3.198-3.214 6.396-6.438 9.592-9.653 12.782-12.867 25.568-25.735 38.351-38.604 1.974-1.986 1.97-5.264 0-7.252-17.145-17.278-34.287-34.56-51.435-51.846-3.17-3.191-8.721-.817-8.748 3.63-.03 4.638-.03 4.638 0 13.924-5.824-5.853-11.742-11.703-17.565-17.554-3.155-3.168-8.747-.837-8.747 3.63v77.816c0 4.475 5.582 6.783 8.747 3.623 5.977-5.97 11.948-11.93 17.926-17.898 3.829-3.828 9.681-7.472 9.637-13.293V43.694c4.502 4.521 9.003 9.042 13.506 13.568-15.512 15.398-15.612 15.296-46.535 46.196-3.488 3.485-3.229 5.938-3.229 22.606 0 11.646-.04 23.294 0 34.942.023 6.611 10.39 6.611 10.363 0v-49.801zm15.709-57.701c-.004.445 0 .887 0 1.329-2.647 2.643-5.429 5.284-8.072 7.924l-7.804 7.792V17.513a34137.61 34137.61 0 0115.876 15.949s.044 13.361 0 20.042z" fill="#fff" fill-rule="nonzero"/></svg>